<?xml version="1.0" encoding="iso-8859-1"?>
<!-- Uploaded to: SVG Repo, www.svgrepo.com, Generator: SVG Repo Mixer Tools -->
<svg fill="#000000" height="800px" width="800px" version="1.1" id="Layer_1" xmlns="http://www.w3.org/2000/svg" xmlns:xlink="http://www.w3.org/1999/xlink" 
	 viewBox="0 0 266.772 266.772" xml:space="preserve">
<g>
	<g>
		<g>
			<path d="M227.326,166.972h-4.088V67.36c0-15.704-10.896-37.972-22.696-47.928c0.164-0.956,0.256-1.936,0.24-2.932
				c-0.064-4.196-1.744-8.152-4.732-11.14c-3.192-3.192-7.384-4.748-11.54-4.692C183.074,0.276,181.59,0,180.03,0H82.642
				c-0.596,0-1.244,0.052-1.888,0.16c-3.92,0.176-7.58,1.752-10.348,4.58c-2.856,2.916-4.316,6.692-4.492,10.508
				c-15.048,9.728-24.768,32.28-24.768,52.112v99.612h-1.692c-0.78,0-1.416,0.636-1.416,1.416v23.528
				c0,0.78,0.636,1.416,1.416,1.416h1.692v9.66c0,15.332,11.676,27.92,26.588,29.512v3.796c0,0.78,0.636,1.416,1.416,1.416h12.448
				v27.64c0,0.78,0.636,1.416,1.416,1.416h18.024c0.78,0,1.416-0.636,1.416-1.416v-32.612h87.344c18.432,0,33.432-15,33.432-33.432
				v-5.976h4.088c0.78,0,1.416-0.636,1.416-1.416v-23.528C228.746,167.612,228.11,166.972,227.326,166.972z M219.27,67.36v99.612
				h-62.848V76.868c0-0.06-0.052-0.1-0.06-0.16l39.988-49.152c1.192-1.192,2.096-2.58,2.82-4.06
				C209.606,33.124,219.27,53.384,219.27,67.36z M197.95,16.544c0.052,3.432-1.228,6.632-3.696,9.112l-39.608,48.68l-4.048-4.532
				l46.664-57.076C197.658,13.956,197.93,15.228,197.95,16.544z M194.05,7.364c1.196,1.2,2.128,2.592,2.788,4.096l-47,57.488
				l-12.724-14.252l38.752-47.632C180.794,2.132,188.95,2.26,194.05,7.364z M175.234,3.972c-0.496,0.388-1.012,0.74-1.468,1.196
				l-38.56,47.396L92.542,4.788L92.494,4.74c-0.284-0.288-0.616-0.504-0.916-0.768H175.234z M81.446,2.924
				c3.408,0,6.6,1.344,9,3.776l63.14,70.708v89.568h-5.44l0.452-85.096c0-0.144-0.052-0.276-0.14-0.384L79.302,3.136
				C80.006,3.016,80.718,2.924,81.446,2.924z M72.43,6.724c1.58-1.612,3.524-2.692,5.632-3.28l69.404,78.644l-0.452,84.888h-9.208
				v-65.84c0-0.62-0.132-1.044-0.724-1.228c-2.692-1.92-40.096-45.668-64.652-74.68C67.434,20.128,67.434,11.824,72.43,6.724z
				 M67.734,228.552c-12.728-1.568-22.62-12.412-22.62-25.556v-9.66h22.62V228.552z M67.734,190.5H40.87v-20.692h26.864V190.5z
				 M70.57,234.888V167.22c0.06-0.076,0.092-0.172,0.156-0.248H70.57v-1.304h15.188v69.22H70.57z M99.626,166.972H99.57
				c0.024,0.024,0.032,0.056,0.056,0.08v96.892H84.438v-26.22h2.74c0.78,0,1.416-0.636,1.416-1.416v-70.64h11.032V166.972z
				 M101.046,162.836H87.178h-4.156H69.154c-0.78,0-1.416,0.636-1.416,1.416v2.724h-22.62V67.36h-0.004
				c0-17.936,8.28-38.228,21.204-47.68c0.636,2.74,1.944,5.34,4.02,7.456c26.64,31.484,58.392,68.676,64.632,74.56v65.28h-32.508
				v-2.724C102.462,163.472,101.826,162.836,101.046,162.836z M134.97,228.78h-32.508v-35.444h32.508V228.78z M147.466,228.784
				h-9.66v-35.448h9.66V228.784z M153.586,228.78h-4.988v-35.444h4.988V228.78z M219.27,199.316
				c0,16.248-13.22,29.464-29.464,29.464h-33.384v-35.404c-0.132,0-0.248-0.036-0.38-0.04h63.228V199.316z M225.91,190.5H102.462
				v-20.692H225.91V190.5z"/>
			<path d="M116.274,128.492V105.42h1.816c0.78,0,1.416-0.636,1.416-1.416V93.888c0-0.78-0.636-1.416-1.416-1.416H57.046
				c-0.78,0-1.416,0.636-1.416,1.416v10.116c0,0.78,0.636,1.416,1.416,1.416h1.816v23.072c0,12.38,9.18,22.46,20.464,22.46H95.81
				C107.094,150.952,116.274,140.872,116.274,128.492z M58.466,102.584v-7.28h58.212v7.28H58.466z M95.814,148.112H79.33
				c-9.724,0-17.628-8.804-17.628-19.624v-23.072h51.744v23.072h-0.004C113.442,139.308,105.534,148.112,95.814,148.112z"/>
			<path d="M101.618,115.796c-2.188,0-3.964,1.776-3.964,3.964c0,0.68,0.216,1.292,0.52,1.852c0,0.004,0,0.012,0,0.016
				c-0.016,0.04-0.116,0.132-0.184,0.2c-0.064,0.06-0.124,0.116-0.176,0.176l-2.372,2.56l-0.58-2.372
				c-0.328-1.356-0.66-2.712-0.996-4.064c-0.012-0.052,0.024-0.048,0.024-0.076c1.46-0.632,2.488-2.084,2.488-3.772
				c0-2.268-1.848-4.116-4.116-4.116s-4.116,1.848-4.116,4.116c0,1.356,0.7,2.5,1.716,3.252c-0.576,1.464-1.144,2.928-1.716,4.392
				l-0.652,1.656l-0.628-1.624c-0.56-1.452-1.12-2.9-1.688-4.352c0.836-0.772,1.376-1.848,1.376-3.072
				c0-2.32-1.892-4.212-4.212-4.212s-4.212,1.892-4.212,4.212c0,1.86,1.236,3.396,2.916,3.948c-0.356,1.412-0.704,2.832-1.044,4.248
				l-0.44,1.832l-0.844-0.916c-0.596-0.648-1.192-1.292-1.796-1.94c0.336-0.584,0.584-1.224,0.584-1.944
				c0-2.188-1.776-3.964-3.964-3.964s-3.964,1.776-3.964,3.964c-0.012,2.032,1.544,3.648,3.516,3.876
				c-0.02,0.004-0.032,0.016-0.052,0.02c0.028,0.064,0.056,0.108,0.084,0.18l0.892,2.36c0.88,2.328,1.76,4.656,2.6,6.996
				c0.144,0.4,0.364,0.656,0.608,0.876c0,0.016-0.016,0.024-0.016,0.044v4.188c0,0.372,0.3,0.676,0.672,0.676h19.38
				c0.372,0,0.676-0.304,0.676-0.676v-4.188c0-0.064-0.052-0.104-0.068-0.164c0.164-0.184,0.348-0.34,0.456-0.636
				c0.612-1.684,1.244-3.356,1.872-5.028c0.544-1.448,1.084-2.896,1.616-4.344c0.052-0.136,0.136-0.216,0.224-0.3
				c1.98-0.22,3.544-1.84,3.544-3.88C105.582,117.572,103.806,115.796,101.618,115.796z M89.27,114.276
				c0-1.644,1.34-2.984,2.984-2.984c1.644,0,2.984,1.34,2.984,2.984c0,1.644-1.34,2.984-2.984,2.984
				C90.61,117.26,89.27,115.92,89.27,114.276z M79.254,114.528c0-1.696,1.384-3.08,3.08-3.08c1.696,0,3.08,1.384,3.08,3.08
				c0,1.696-1.384,3.08-3.08,3.08C80.638,117.608,79.254,116.224,79.254,114.528z M73.53,122.592c-1.564,0-2.832-1.268-2.832-2.832
				c0-1.564,1.272-2.832,2.832-2.832c1.564,0,2.832,1.268,2.832,2.832C76.362,121.324,75.094,122.592,73.53,122.592z M96.802,137.84
				h-18.46v-3.268h0.256h0.02h18.184V137.84z M99.134,127.884c-0.628,1.676-1.256,3.352-1.872,5.036
				c-0.16,0.432-0.268,0.516-0.712,0.516h-0.02c-5.972-0.032-11.944-0.036-17.916,0.004h-0.02c-0.568,0-0.72-0.108-0.904-0.628
				c-0.848-2.344-1.732-4.68-2.608-7.012l-0.836-2.22c0.756-0.144,1.448-0.44,1.988-0.948c0.552,0.592,1.096,1.184,1.644,1.78
				l1.048,1.136c0.096,0.104,0.208,0.2,0.344,0.312l0.2,0.164c0.136,0.128,0.328,0.16,0.524,0.12
				c0.188-0.056,0.332-0.196,0.392-0.38l0.068-0.216c0.068-0.212,0.12-0.38,0.164-0.556l0.484-2.008
				c0.344-1.432,0.692-2.864,1.052-4.288c0.064,0.004,0.116,0.036,0.18,0.036c0.68,0,1.3-0.2,1.872-0.488
				c0.536,1.368,1.064,2.736,1.596,4.108l0.92,2.38c0.044,0.108,0.1,0.216,0.168,0.34l0.084,0.156
				c0.084,0.172,0.292,0.236,0.484,0.252c0.196-0.004,0.42-0.108,0.544-0.256c0.068-0.084,0.148-0.18,0.192-0.308l1.008-2.588
				c0.544-1.408,1.096-2.82,1.648-4.224c0.444,0.164,0.912,0.288,1.412,0.288c0.176,0,0.324-0.08,0.496-0.1
				c0.004,0.028,0.004,0.084,0.008,0.104c0.336,1.352,0.668,2.708,0.996,4.06l0.672,2.764c0.044,0.172,0.116,0.312,0.196,0.456
				l0.092,0.188c0.084,0.168,0.244,0.284,0.428,0.316c0.172,0.016,0.372-0.044,0.5-0.18l1.916-2.072l1.204-1.288
				c0.02-0.02,0.044-0.044,0.064-0.064c0.512,0.508,1.188,0.804,1.916,0.972C100.218,124.996,99.678,126.436,99.134,127.884z
				 M101.61,122.592c-1.564,0-2.832-1.268-2.832-2.832c0-1.564,1.268-2.832,2.832-2.832c1.564,0,2.832,1.268,2.832,2.832
				C104.442,121.324,103.174,122.592,101.61,122.592z"/>
		</g>
	</g>
</g>
</svg>