<?xml version="1.0" encoding="iso-8859-1"?>
<!-- Uploaded to: SVG Repo, www.svgrepo.com, Generator: SVG Repo Mixer Tools -->
<!DOCTYPE svg PUBLIC "-//W3C//DTD SVG 1.1//EN" "http://www.w3.org/Graphics/SVG/1.1/DTD/svg11.dtd">
<svg fill="#000000" height="800px" width="800px" version="1.1" id="Capa_1" xmlns="http://www.w3.org/2000/svg" xmlns:xlink="http://www.w3.org/1999/xlink" 
	 viewBox="0 0 503.306 503.306" xml:space="preserve">
<g>
	<path d="M148.675,59.969v5.942c-0.112,0.138-0.231,0.269-0.329,0.424c-0.649,1.036-1.373,2.108-2.139,3.243
		c-4.269,6.328-9.584,14.204-9.845,26.952c-0.361,17.645,7.471,31.234,22.631,39.375c9.227,13.46,24.71,22.311,42.225,22.311
		c17.536,0,33.036-8.873,42.259-22.362c15.107-8.145,22.977-21.644,22.736-39.12c-0.171-12.48-4.854-19.898-10.404-28.204V59.88
		c7.231-4.68,14.738-13.293,14.738-24.223c0-14.857-12.488-26.061-29.048-26.061c-3.001,0-5.951,0.364-8.801,1.084
		C224.75,3.866,213.863,0,202.42,0c-11.323,0-22.139,3.803-30.07,10.505c-2.626-0.604-5.335-0.909-8.084-0.909
		c-16.56,0-29.048,11.204-29.048,26.061C135.217,45.028,141.803,56.24,148.675,59.969z M144.861,96.703
		c0.21-10.244,4.37-16.409,8.393-22.372c0.032-0.048,0.063-0.093,0.095-0.141h15.688c-3.732,6.313-9.634,13.347-17.671,14.135
		c-2.336,0.229-4.044,2.308-3.814,4.644c0.154,1.575,1.156,2.853,2.505,3.456v10.627c0,4.056,0.489,7.999,1.385,11.785
		C146.899,112.899,144.68,105.507,144.861,96.703z M201.218,149.716c-23.524,0-42.663-19.138-42.663-42.663v-11.79
		c10.042-3.893,16.584-13.911,20.14-21.073h3.065c10.818,10.585,32.207,26.866,62.119,27.857v5.006
		C243.88,130.578,224.742,149.716,201.218,149.716z M250.991,118.854c0.898-3.791,1.389-7.738,1.389-11.8v-5.401
		c1.592-0.674,2.681-2.274,2.594-4.103c-0.112-2.344-2.085-4.164-4.447-4.043c-24.938,1.176-44.053-9.645-55.995-19.316h54.835
		c4.829,7.269,8.217,13.043,8.348,22.66C257.834,105.588,255.568,112.937,250.991,118.854z M164.265,18.096
		c2.742,0,5.425,0.394,7.973,1.172c1.466,0.449,3.069,0.069,4.181-0.996c6.482-6.21,15.96-9.772,26.001-9.772
		c10.167,0,19.719,3.633,26.205,9.968c1.137,1.111,2.8,1.494,4.309,0.993c2.729-0.906,5.61-1.365,8.566-1.365
		c11.714,0,20.548,7.55,20.548,17.561c0,10.963-11.235,17.379-12.517,18.075c-1.369,0.743-2.222,2.177-2.222,3.735v8.223h-90.134
		v-6.517h13.772c2.348,0,4.25-1.903,4.25-4.25c0-2.347-1.902-4.25-4.25-4.25h-20.367c-3.166-3.021-6.863-8.236-6.863-15.017
		C143.717,25.646,152.551,18.096,164.265,18.096z"/>
	<path d="M202.628,117.602h-5.129c-9.884,0-17.925,8.041-17.925,17.925v5.298c0,2.347,1.902,4.25,4.25,4.25
		c2.348,0,4.25-1.903,4.25-4.25v-5.298c0-5.197,4.227-9.425,9.425-9.425h5.129c5.197,0,9.425,4.228,9.425,9.425v5.298
		c0,2.347,1.902,4.25,4.25,4.25c2.348,0,4.25-1.903,4.25-4.25v-5.298C220.552,125.643,212.511,117.602,202.628,117.602z"/>
	<path d="M204.827,133.26h-9.527c-2.348,0-4.25,1.903-4.25,4.25c0,2.347,1.902,4.25,4.25,4.25h9.527c2.348,0,4.25-1.903,4.25-4.25
		C209.077,135.163,207.174,133.26,204.827,133.26z"/>
	<path d="M178.021,236.438c-6.079,0-11.025,4.946-11.025,11.025c0,6.08,4.946,11.025,11.025,11.025
		c6.078,0,11.023-4.946,11.023-11.025C189.045,241.384,184.099,236.438,178.021,236.438z M178.021,249.989
		c-1.393,0-2.525-1.133-2.525-2.525c0-1.392,1.133-2.525,2.525-2.525c1.392,0,2.523,1.133,2.523,2.525
		C180.545,248.856,179.413,249.989,178.021,249.989z"/>
	<path d="M178.021,206.167c-6.079,0-11.025,4.946-11.025,11.025c0,6.08,4.946,11.025,11.025,11.025
		c6.078,0,11.023-4.946,11.023-11.025C189.045,211.113,184.099,206.167,178.021,206.167z M178.021,219.718
		c-1.393,0-2.525-1.133-2.525-2.525c0-1.392,1.133-2.525,2.525-2.525c1.392,0,2.523,1.133,2.523,2.525
		C180.545,218.585,179.413,219.718,178.021,219.718z"/>
	<path d="M178.021,266.709c-6.079,0-11.025,4.946-11.025,11.025c0,6.079,4.946,11.025,11.025,11.025
		c6.078,0,11.023-4.946,11.023-11.025C189.045,271.654,184.099,266.709,178.021,266.709z M178.021,280.259
		c-1.393,0-2.525-1.133-2.525-2.525c0-1.393,1.133-2.525,2.525-2.525c1.392,0,2.523,1.133,2.523,2.525
		C180.545,279.126,179.413,280.259,178.021,280.259z"/>
	<path d="M223.862,258.489c6.078,0,11.023-4.946,11.023-11.025c0-6.079-4.945-11.025-11.023-11.025
		c-6.079,0-11.025,4.946-11.025,11.025C212.837,253.543,217.783,258.489,223.862,258.489z M223.862,244.938
		c1.392,0,2.523,1.133,2.523,2.525c0,1.393-1.132,2.525-2.523,2.525c-1.393,0-2.525-1.133-2.525-2.525
		C221.337,246.071,222.469,244.938,223.862,244.938z"/>
	<path d="M223.862,228.218c6.078,0,11.023-4.946,11.023-11.025c0-6.079-4.945-11.025-11.023-11.025
		c-6.079,0-11.025,4.946-11.025,11.025C212.837,223.272,217.783,228.218,223.862,228.218z M223.862,214.667
		c1.392,0,2.523,1.133,2.523,2.525c0,1.393-1.132,2.525-2.523,2.525c-1.393,0-2.525-1.133-2.525-2.525
		C221.337,215.8,222.469,214.667,223.862,214.667z"/>
	<path d="M223.862,266.709c-6.079,0-11.025,4.946-11.025,11.025c0,6.079,4.946,11.025,11.025,11.025
		c6.078,0,11.023-4.946,11.023-11.025C234.885,271.654,229.94,266.709,223.862,266.709z M223.862,280.259
		c-1.393,0-2.525-1.133-2.525-2.525c0-1.393,1.133-2.525,2.525-2.525c1.392,0,2.523,1.133,2.523,2.525
		C226.385,279.126,225.254,280.259,223.862,280.259z"/>
	<path d="M336.08,185.621l-28.101,28.1c0,0-35.441-34.104-46.859-45.867c-5.076-5.23-12.013-8.721-19.857-8.721h-22.511
		c-2.172,0-3.994,1.637-4.225,3.796c-0.617,5.743-6.451,10.242-13.283,10.242c-6.832,0-12.667-4.499-13.284-10.243
		c-0.232-2.159-2.054-3.796-4.226-3.796h-22.51c-7.873,0-14.969,3.386-19.912,8.776c-0.03,0.029-0.065,0.049-0.096,0.079
		l-78.997,78.997c-8.934,8.936-8.934,23.476,0.001,32.412c4.469,4.468,10.338,6.701,16.207,6.701c5.869,0,11.738-2.234,16.206-6.701
		l39.569-39.57v96.835c0,2.347,1.902,4.25,4.25,4.25h2.192V473.57c0,16.397,13.34,29.736,29.737,29.736
		c16.396,0,29.735-13.339,29.735-29.736V367.174h2.251V473.57c0,16.397,13.34,29.736,29.736,29.736
		c16.397,0,29.737-13.339,29.737-29.736V340.912h2.191c2.348,0,4.25-1.903,4.25-4.25v-96.897l23.909,21.619
		c4.378,4.348,10.111,6.524,15.841,6.524c5.72-0.001,11.438-2.17,15.794-6.512c0.012-0.012,0.023-0.023,0.035-0.036
		c0.004-0.004,0.008-0.007,0.011-0.011l43.923-43.922c4.25-4.236,6.604-9.86,6.628-15.836c0.024-5.989-2.295-11.628-6.529-15.875
		C359.127,176.918,344.857,176.876,336.08,185.621z M222.157,167.634h19.105c10.212,0,18.521,8.308,18.521,18.521v146.258h-96.878
		V198.124l46.767-17.969C215.633,177.914,220.267,173.36,222.157,167.634z M180.328,167.634c1.548,4.689,4.938,8.591,9.387,11.083
		l-32.584,12.52c-1.642,0.631-2.725,2.208-2.725,3.967v137.208h-11.703V186.154c0-10.212,8.309-18.521,18.521-18.521H180.328z
		 M88.623,273.386c-5.623,5.622-14.771,5.621-20.393,0.001c-5.621-5.622-5.621-14.77-0.001-20.391l6.762-6.762l20.393,20.392
		L88.623,273.386z M101.393,260.615l-20.393-20.392l53.201-53.201v40.784L101.393,260.615z M253.341,449.34h-6.654
		c-2.348,0-4.25,1.903-4.25,4.25s1.902,4.25,4.25,4.25h6.654v6.415h-28.579c-2.348,0-4.25,1.903-4.25,4.25
		c0,2.347,1.902,4.25,4.25,4.25h28.579v0.815c0,11.71-9.527,21.236-21.237,21.236c-11.71,0-21.236-9.526-21.236-21.236V362.924
		c0-2.347-1.902-4.25-4.25-4.25h-10.751c-2.348,0-4.25,1.903-4.25,4.25V473.57c0,11.71-9.526,21.236-21.235,21.236
		c-11.71,0-21.237-9.526-21.237-21.236v-0.815h28.684c2.348,0,4.25-1.903,4.25-4.25c0-2.347-1.902-4.25-4.25-4.25h-28.684V340.912
		h104.197V449.34z M317.983,255.218c-0.075,0.069-0.148,0.142-0.22,0.218c-0.006,0.006-0.012,0.013-0.019,0.02
		c-5.43,5.332-14.207,5.271-19.615-0.155c-0.052-0.052-0.105-0.102-0.159-0.152l-29.371-26.558c-0.1-0.09-0.212-0.154-0.316-0.233
		v-41.599l36.756,35.978c1.664,1.629,4.331,1.616,5.978-0.032l13.441-13.442l19.508,19.973L317.983,255.218z M361.791,211.412
		l-11.814,11.814l-19.508-19.973l11.616-11.616c5.452-5.433,14.329-5.398,19.789,0.08c2.627,2.635,4.065,6.129,4.05,9.84
		C365.908,205.271,364.442,208.769,361.791,211.412z"/>
	<path d="M439.529,150.928c-1.81-39.353-33.321-71.079-72.587-73.229v-7.208c0-2.347-1.902-4.25-4.25-4.25
		c-2.348,0-4.25,1.903-4.25,4.25v7.208c-39.266,2.149-70.775,33.876-72.586,73.228c-4.737,1.192-8.26,5.476-8.26,10.577
		c0,6.02,4.897,10.917,10.918,10.917H436.87c6.021,0,10.918-4.897,10.918-10.917C447.788,156.403,444.266,152.12,439.529,150.928z
		 M362.692,86.076c36.416,0,66.27,28.596,68.308,64.51H315.924c1.998-24.058,22.203-43.028,46.768-43.028
		c2.348,0,4.25-1.903,4.25-4.25c0-2.347-1.902-4.25-4.25-4.25c-29.253,0-53.272,22.778-55.289,51.528h-13.018
		C296.422,114.672,326.277,86.076,362.692,86.076z M436.87,163.922H288.514c-1.333,0-2.418-1.084-2.418-2.417
		c0-1.333,1.085-2.418,2.418-2.418H436.87c1.333,0,2.418,1.085,2.418,2.418C439.288,162.837,438.203,163.922,436.87,163.922z"/>
	<path d="M168.262,428.229c2.348,0,4.25-1.903,4.25-4.25V366.97c0-2.347-1.902-4.25-4.25-4.25c-2.348,0-4.25,1.903-4.25,4.25v57.009
		C164.012,426.326,165.915,428.229,168.262,428.229z"/>
</g>
</svg>